<?xml version="1.0" encoding="utf-8"?>
<?xml-stylesheet type="text/xsl" href="rss1.xsl"?>
<rss version="2.0" xmlns:atom="http://www.w3.org/2005/Atom" xmlns:content="http://purl.org/rss/1.0/modules/content/" xmlns:dc="http://purl.org/dc/elements/1.1/" xmlns:media="http://search.yahoo.com/mrss/">
<channel>
 <title>Getty</title>
 <link>http://www.gettyimg.com/</link>
 <atom:link href="http://www.gettyimg.com/" rel="self" type="application/rss+xml" />

 
                <item>
                <title><![CDATA[【Apple Music】WEB-RiP - Joel Corry - I Wish (feat. Mabel) (1080p)]]></title>
                <link><![CDATA[https://sharemania.us/threads/joel-corry-i-wish-feat-mabel-1080p.251261/]]></link>
                <description><![CDATA[<article>
<blockquote class="messageText SelectQuoteContainer ugc baseHtml">
<img src="https://i.postimg.cc/s22Dcqng/Joel-Corry-I-Wish-feat-Mabel-mp4.jpg" class="bbCodeImage LbImage" alt="[​IMG]" data-url="https://i.postimg.cc/s22Dcqng/Joel-Corry-I-Wish-feat-Mabel-mp4.jpg" style=""><br>
<br>
<div class="bbCodeBlock bbCodeCode">
<div class="type">Code:</div>
<pre>General
Complete name                  : G:\Новая папка\Joel Corry - I Wish (feat. Mabel).mp4
Format                         : MPEG-4
Format profile                 : Base Media
Codec ID                       : isom (isom/iso2/avc1/mp41)
File size                      : 155 MiB
Duration                       : 3 min 7 s
Overall bit rate               : 6 923 kb/s
Frame rate                     : 25.000 FPS
Movie name                     : I Wish (feat. Mabel)
Performer                      : Joel Corry
Genre                          : Dance
ContentType                    : Music Video
Recorded date                  : 2021-11-05 07:00:00 UTC
Writing application            : Lavf56.30.100
Copyright                      : ℗ Under exclusive licence to Warner Music UK Limited. An Asylum Records release, © 2021 Joel Corry Limited

Video
ID                             : 1
Format                         : AVC
Format/Info                    : Advanced Video Codec
Format profile                 : High@L4
Format settings                : CABAC / 5 Ref Frames
Format settings, CABAC         : Yes
Format settings, Reference fra : 5 frames
Format settings, Slice count   : 8 slices per frame
Codec ID                       : avc1
Codec ID/Info                  : Advanced Video Coding
Duration                       : 3 min 7 s
Bit rate                       : 6 657 kb/s
Width                          : 1 920 pixels
Height                         : 816 pixels
Display aspect ratio           : 2.35:1
Frame rate mode                : Constant
Frame rate                     : 25.000 FPS
Color space                    : YUV
Chroma subsampling             : 4:2:0
Bit depth                      : 8 bits
Scan type                      : Progressive
Bits/(Pixel*Frame)             : 0.170
Stream size                    : 149 MiB (96%)
Color range                    : Limited
Color primaries                : BT.709
Transfer characteristics       : BT.709
Matrix coefficients            : BT.709
Codec configuration box        : avcC

Audio
ID                             : 2
Format                         : AAC LC
Format/Info                    : Advanced Audio Codec Low Complexity
Codec ID                       : mp4a-40-2
Duration                       : 3 min 7 s
Duration_LastFrame             : -20 ms
Bit rate mode                  : Constant
Bit rate                       : 265 kb/s
Channel(s)                     : 2 channels
Channel layout                 : L R
Sampling rate                  : 48.0 kHz
Frame rate                     : 46.875 FPS (1024 SPF)
Compression mode               : Lossy
Stream size                    : 5.85 MiB (4%)
Default                        : Yes
Alternate group                : 1

</pre>
</div>
<div class="bbCodeBlock bbCodeVfcHH HiddenContent">
<div class="attribution type">Hidden Content:</div>
<blockquote>You must either reply or click 'Like' to see the hidden information contained here.</blockquote>
</div>
<div class="messageTextEndMarker">&nbsp;</div>
</blockquote>
</article>]]></description>
                <author><![CDATA[vitalya3]]></author>
                </item>

                
                <item>
                <title><![CDATA[【Apple Music】WEB-RiP - Ne-Yo &amp; Pitbull - Me Quedaré Contigo (feat. Lenier &amp; El Micha) (1080p)]]></title>
                <link><![CDATA[https://sharemania.us/threads/ne-yo-pitbull-me-quedar%C3%A9-contigo-feat-lenier-el-micha-1080p.251255/]]></link>
                <description><![CDATA[<article>
<blockquote class="messageText SelectQuoteContainer ugc baseHtml">
<img src="https://i.postimg.cc/2yztQ75n/Ne-Yo-Pitbull-Me-Quedar-Contigo-feat-Lenier-El-Micha-mp4.jpg" class="bbCodeImage LbImage" alt="[​IMG]" data-url="https://i.postimg.cc/2yztQ75n/Ne-Yo-Pitbull-Me-Quedar-Contigo-feat-Lenier-El-Micha-mp4.jpg" style=""><br>
<br>
<div class="bbCodeBlock bbCodeCode">
<div class="type">Code:</div>
<pre>General
Complete name                  : G:\Новая папка\Ne-Yo &amp; Pitbull - Me Quedaré Contigo (feat. Lenier &amp; El Micha).mp4
Format                         : MPEG-4
Format profile                 : Base Media
Codec ID                       : isom (isom/iso2/avc1/mp41)
File size                      : 206 MiB
Duration                       : 4 min 14 s
Overall bit rate               : 6 800 kb/s
Frame rate                     : 23.976 FPS
Movie name                     : Me Quedaré Contigo (feat. Lenier &amp; El Micha)
Performer                      : Ne-Yo &amp; Pitbull
Genre                          : Latin
ContentType                    : Music Video
Recorded date                  : 2019-11-01 07:00:00 UTC
Writing application            : Lavf56.30.100
Copyright                      : ℗ 2019 Mr. 305 Records

Video
ID                             : 1
Format                         : AVC
Format/Info                    : Advanced Video Codec
Format profile                 : High@L4
Format settings                : CABAC / 4 Ref Frames
Format settings, CABAC         : Yes
Format settings, Reference fra : 4 frames
Format settings, Slice count   : 8 slices per frame
Codec ID                       : avc1
Codec ID/Info                  : Advanced Video Coding
Duration                       : 4 min 14 s
Bit rate                       : 6 548 kb/s
Width                          : 1 920 pixels
Height                         : 1 080 pixels
Display aspect ratio           : 16:9
Frame rate mode                : Constant
Frame rate                     : 23.976 (24000/1001) FPS
Color space                    : YUV
Chroma subsampling             : 4:2:0
Bit depth                      : 8 bits
Scan type                      : Progressive
Bits/(Pixel*Frame)             : 0.132
Stream size                    : 198 MiB (96%)
Color range                    : Limited
Color primaries                : BT.709
Transfer characteristics       : BT.709
Matrix coefficients            : BT.709
Codec configuration box        : avcC

Audio
ID                             : 2
Format                         : AAC LC
Format/Info                    : Advanced Audio Codec Low Complexity
Codec ID                       : mp4a-40-2
Duration                       : 4 min 14 s
Duration_LastFrame             : -14 ms
Bit rate mode                  : Constant
Bit rate                       : 248 kb/s
Channel(s)                     : 2 channels
Channel layout                 : L R
Sampling rate                  : 48.0 kHz
Frame rate                     : 46.875 FPS (1024 SPF)
Compression mode               : Lossy
Stream size                    : 7.51 MiB (4%)
Default                        : Yes
Alternate group                : 1

</pre>
</div>
<div class="bbCodeBlock bbCodeVfcHH HiddenContent">
<div class="attribution type">Hidden Content:</div>
<blockquote>You must either reply or click 'Like' to see the hidden information contained here.</blockquote>
</div>
<div class="messageTextEndMarker">&nbsp;</div>
</blockquote>
</article>]]></description>
                <author><![CDATA[vitalya3]]></author>
                </item>

                
                <item>
                <title><![CDATA[【Apple Music】WEB-RiP - Mabel - Bedroom (1080p)]]></title>
                <link><![CDATA[https://sharemania.us/threads/mabel-bedroom-1080p.251262/]]></link>
                <description><![CDATA[<article>
<blockquote class="messageText SelectQuoteContainer ugc baseHtml">
<img src="https://i.postimg.cc/BbPjCknK/Mabel-Bedroom-mp4.jpg" class="bbCodeImage LbImage" alt="[​IMG]" data-url="https://i.postimg.cc/BbPjCknK/Mabel-Bedroom-mp4.jpg" style=""><br>
<br>
<div class="bbCodeBlock bbCodeCode">
<div class="type">Code:</div>
<pre>General
Complete name                  : G:\Новая папка\Mabel - Bedroom.mp4
Format                         : MPEG-4
Format profile                 : Base Media
Codec ID                       : isom (isom/iso2/avc1/mp41)
File size                      : 174 MiB
Duration                       : 3 min 35 s
Overall bit rate               : 6 794 kb/s
Frame rate                     : 25.000 FPS
Movie name                     : Bedroom
Performer                      : Mabel
Genre                          : Pop
ContentType                    : Music Video
Recorded date                  : 2017-05-12 07:00:00 UTC
Writing application            : Lavf56.30.100
Copyright                      : ℗ 2017 Mabel McVey, under exclusive licence to Polydor Records, a division of Universal Music Operations Limited

Video
ID                             : 1
Format                         : AVC
Format/Info                    : Advanced Video Codec
Format profile                 : High@L4
Format settings                : CABAC / 4 Ref Frames
Format settings, CABAC         : Yes
Format settings, Reference fra : 4 frames
Format settings, Slice count   : 8 slices per frame
Codec ID                       : avc1
Codec ID/Info                  : Advanced Video Coding
Duration                       : 3 min 35 s
Bit rate                       : 6 538 kb/s
Width                          : 1 912 pixels
Height                         : 1 072 pixels
Display aspect ratio           : 16:9
Frame rate mode                : Constant
Frame rate                     : 25.000 FPS
Color space                    : YUV
Chroma subsampling             : 4:2:0
Bit depth                      : 8 bits
Scan type                      : Progressive
Bits/(Pixel*Frame)             : 0.128
Stream size                    : 168 MiB (96%)
Color range                    : Limited
Color primaries                : BT.709
Transfer characteristics       : BT.709
Matrix coefficients            : BT.709
Codec configuration box        : avcC

Audio
ID                             : 2
Format                         : AAC LC
Format/Info                    : Advanced Audio Codec Low Complexity
Codec ID                       : mp4a-40-2
Duration                       : 3 min 35 s
Duration_LastFrame             : -1 ms
Bit rate mode                  : Constant
Bit rate                       : 252 kb/s
Channel(s)                     : 2 channels
Channel layout                 : L R
Sampling rate                  : 48.0 kHz
Frame rate                     : 46.875 FPS (1024 SPF)
Compression mode               : Lossy
Stream size                    : 6.47 MiB (4%)
Default                        : Yes
Alternate group                : 1

</pre>
</div><br>
<div class="bbCodeBlock bbCodeVfcHH HiddenContent">
<div class="attribution type">Hidden Content:</div>
<blockquote>You must either reply or click 'Like' to see the hidden information contained here.</blockquote>
</div>
<div class="messageTextEndMarker">&nbsp;</div>
</blockquote>
</article>]]></description>
                <author><![CDATA[vitalya3]]></author>
                </item>

                
                <item>
                <title><![CDATA[【Interviews / TV shows / Others】WEB-DL - Sabrina Carpenter's Espresso Dream (NBC Sports Olympics Promo)]]></title>
                <link><![CDATA[https://sharemania.us/threads/sabrina-carpenters-espresso-dream-nbc-sports-olympics-promo.251256/]]></link>
                <description><![CDATA[<article>
<blockquote class="messageText SelectQuoteContainer ugc baseHtml">
<img src="https://i.ibb.co/9y0sfTZ/Sabrina-Carpenter-s-Espresso-Dream-NBC-Sports-Olympics-Promo-mp4-thumbs.png" class="bbCodeImage LbImage" alt="[​IMG]" data-url="https://i.ibb.co/9y0sfTZ/Sabrina-Carpenter-s-Espresso-Dream-NBC-Sports-Olympics-Promo-mp4-thumbs.png" style=""> <br>
<div class="bbCodeBlock bbCodeQuote">
<aside>
<blockquote class="quoteContainer"><div class="quote">Format : MPEG-4<br>
Format profile : Base Media / Version 2<br>
Codec ID : mp42 (mp42/mp41)<br>
File size : 252 MiB<br>
Duration : 1 min 0 s<br>
Overall bit rate mode : Variable<br>
Overall bit rate : 35.2 Mb/s<br>
Frame rate : 23.976 FPS<br>
Encoded date : 2024-07-15 01:21:53 UTC<br>
Tagged date : 2024-07-15 01:22:01 UTC<br>
TIM : 01:00:00:00<br>
TSC : 24000<br>
TSZ : 1001<br>
Video<br>
ID : 1<br>
Format : AVC<br>
Format/Info : Advanced Video Codec<br>
Format profile : Main@L4.1<br>
Format settings : CABAC / 4 Ref Frames<br>
Format settings, CABAC : Yes<br>
Format settings, Reference fra : 4 frames<br>
Codec ID : avc1<br>
Codec ID/Info : Advanced Video Coding<br>
Duration : 1 min 0 s<br>
Bit rate : 35.0 Mb/s<br>
Width : 1 920 pixels<br>
Height : 1 080 pixels<br>
Display aspect ratio : 16:9<br>
Frame rate mode : Constant<br>
Frame rate : 23.976 (24000/1001) FPS<br>
Color space : YUV<br>
Chroma subsampling : 4:2:0<br>
Bit depth : 8 bits<br>
Scan type : Progressive<br>
Bits/(Pixel*Frame) : 0.704<br>
Stream size : 251 MiB (99%)<br>
Language : English<br>
Encoded date : 2024-07-15 01:21:53 UTC<br>
Tagged date : 2024-07-15 01:21:53 UTC<br>
Color range : Limited<br>
Color primaries : BT.709<br>
Transfer characteristics : BT.709<br>
Matrix coefficients : BT.709<br>
Codec configuration box : avcC<br>
Audio<br>
ID : 2<br>
Format : AAC LC<br>
Format/Info : Advanced Audio Codec Low Complexity<br>
Codec ID : mp4a-40-2<br>
Duration : 1 min 0 s<br>
Source duration : 1 min 0 s<br>
Bit rate mode : Variable<br>
Bit rate : 192 kb/s<br>
Maximum bit rate : 222 kb/s<br>
Channel(s) : 2 channels<br>
Channel layout : L R<br>
Sampling rate : 48.0 kHz<br>
Frame rate : 46.875 FPS (1024 SPF)<br>
Compression mode : Lossy<br>
Stream size : 1.36 MiB (1%)<br>
Source stream size : 1.36 MiB (1%)<br>
Language : English<br>
Encoded date : 2024-07-15 01:21:53 UTC<br>
Tagged date : 2024-07-15 01:21:53 UTC</div><div class="quoteExpand quoteCut">Click to expand...</div></blockquote>
</aside>
</div><img src="https://i.ibb.co/qsC2Qn0/Sabrina-Carpenter-s-Espresso-Dream-NBC-Sports-Olympics-Promo-mp4-snapshot-00-10-885.png" class="bbCodeImage LbImage" alt="[​IMG]" data-url="https://i.ibb.co/qsC2Qn0/Sabrina-Carpenter-s-Espresso-Dream-NBC-Sports-Olympics-Promo-mp4-snapshot-00-10-885.png" style=""> <br>
<div class="bbCodeBlock bbCodeVfcHH HiddenContent">
<div class="attribution type">Hidden Content:</div>
<blockquote>You must reply before you can see the hidden data contained here.</blockquote>
</div>
<div class="messageTextEndMarker">&nbsp;</div>
</blockquote>
</article>]]></description>
                <author><![CDATA[Athos]]></author>
                </item>

                
                <item>
                <title><![CDATA[【Requests】[REQ AUD] - Lauren Jauregui More than that - Instrumental]]></title>
                <link><![CDATA[https://sharemania.us/threads/lauren-jauregui-more-than-that-instrumental.251258/]]></link>
                <description><![CDATA[<article>
<blockquote class="messageText SelectQuoteContainer ugc baseHtml">
please i need a instrumental
<div class="messageTextEndMarker">&nbsp;</div>
</blockquote>
</article>]]></description>
                <author><![CDATA[isaiaspdf25]]></author>
                </item>

                
                <item>
                <title><![CDATA[【Apple Music】WEB-RiP - Pitbull, Vikina - It Takes 3 (1080p)]]></title>
                <link><![CDATA[https://sharemania.us/threads/pitbull-vikina-it-takes-3-1080p.251259/]]></link>
                <description><![CDATA[<article>
<blockquote class="messageText SelectQuoteContainer ugc baseHtml">
<img src="https://i.postimg.cc/Dyzfrtmp/Pitbull-Vikina-It-Takes-3-mp4.jpg" class="bbCodeImage LbImage" alt="[​IMG]" data-url="https://i.postimg.cc/Dyzfrtmp/Pitbull-Vikina-It-Takes-3-mp4.jpg" style=""><br>
<br>
<div class="bbCodeBlock bbCodeCode">
<div class="type">Code:</div>
<pre>General
Complete name                  : G:\Новая папка\Pitbull, Vikina - It Takes 3.mp4
Format                         : MPEG-4
Format profile                 : Base Media
Codec ID                       : isom (isom/iso2/avc1/mp41)
File size                      : 150 MiB
Duration                       : 2 min 5 s
Overall bit rate               : 10.0 Mb/s
Frame rate                     : 24.000 FPS
Movie name                     : It Takes 3
Performer                      : Pitbull
Genre                          : Pop
ContentType                    : Music Video
Recorded date                  : 2023-10-27 07:00:00 UTC
Writing application            : Lavf56.30.100
Copyright                      : ℗ 2023 Mr. 305 Records

Video
ID                             : 1
Format                         : AVC
Format/Info                    : Advanced Video Codec
Format profile                 : High@L4
Format settings                : CABAC / 4 Ref Frames
Format settings, CABAC         : Yes
Format settings, Reference fra : 4 frames
Format settings, Slice count   : 8 slices per frame
Codec ID                       : avc1
Codec ID/Info                  : Advanced Video Coding
Duration                       : 2 min 5 s
Bit rate                       : 9 760 kb/s
Width                          : 1 920 pixels
Height                         : 1 080 pixels
Display aspect ratio           : 16:9
Frame rate mode                : Constant
Frame rate                     : 24.000 FPS
Color space                    : YUV
Chroma subsampling             : 4:2:0
Bit depth                      : 8 bits
Scan type                      : Progressive
Bits/(Pixel*Frame)             : 0.196
Stream size                    : 146 MiB (97%)
Color range                    : Limited
Color primaries                : BT.709
Transfer characteristics       : BT.709
Matrix coefficients            : BT.709
Codec configuration box        : avcC

Audio
ID                             : 2
Format                         : AAC LC
Format/Info                    : Advanced Audio Codec Low Complexity
Codec ID                       : mp4a-40-2
Duration                       : 2 min 5 s
Duration_LastFrame             : -11 ms
Bit rate mode                  : Constant
Bit rate                       : 280 kb/s
Channel(s)                     : 2 channels
Channel layout                 : L R
Sampling rate                  : 48.0 kHz
Frame rate                     : 46.875 FPS (1024 SPF)
Compression mode               : Lossy
Stream size                    : 4.19 MiB (3%)
Default                        : Yes
Alternate group                : 1

</pre>
</div>
<div class="bbCodeBlock bbCodeVfcHH HiddenContent">
<div class="attribution type">Hidden Content:</div>
<blockquote>You must either reply or click 'Like' to see the hidden information contained here.</blockquote>
</div>
<div class="messageTextEndMarker">&nbsp;</div>
</blockquote>
</article>]]></description>
                <author><![CDATA[vitalya3]]></author>
                </item>

                
                <item>
                <title><![CDATA[【Apple Music】WEB-RiP - Julia Michaels - If You Need Me (1080p)]]></title>
                <link><![CDATA[https://sharemania.us/threads/julia-michaels-if-you-need-me-1080p.251260/]]></link>
                <description><![CDATA[<article>
<blockquote class="messageText SelectQuoteContainer ugc baseHtml">
<img src="https://i.postimg.cc/nr3DdBvy/Julia-Michaels-If-You-Need-Me-mp4.jpg" class="bbCodeImage LbImage" alt="[​IMG]" data-url="https://i.postimg.cc/nr3DdBvy/Julia-Michaels-If-You-Need-Me-mp4.jpg" style=""><br>
<br>
<div class="bbCodeBlock bbCodeCode">
<div class="type">Code:</div>
<pre>General
Complete name                  : G:\Новая папка\Julia Michaels - If You Need Me.mp4
Format                         : MPEG-4
Format profile                 : Base Media
Codec ID                       : isom (isom/iso2/avc1/mp41)
File size                      : 222 MiB
Duration                       : 4 min 31 s
Overall bit rate               : 6 856 kb/s
Frame rate                     : 23.976 FPS
Movie name                     : If You Need Me
Performer                      : Julia Michaels
Genre                          : Pop
ContentType                    : Music Video
Recorded date                  : 2019-09-26 07:00:00 UTC
Writing application            : Lavf56.30.100
Copyright                      : ℗ 2019 Republic Records, a division of UMG Recordings, Inc.

Video
ID                             : 1
Format                         : AVC
Format/Info                    : Advanced Video Codec
Format profile                 : High@L4
Format settings                : CABAC / 5 Ref Frames
Format settings, CABAC         : Yes
Format settings, Reference fra : 5 frames
Format settings, Slice count   : 8 slices per frame
Codec ID                       : avc1
Codec ID/Info                  : Advanced Video Coding
Duration                       : 4 min 31 s
Bit rate                       : 6 597 kb/s
Width                          : 1 912 pixels
Height                         : 804 pixels
Display aspect ratio           : 2.39:1
Frame rate mode                : Constant
Frame rate                     : 23.976 (24000/1001) FPS
Color space                    : YUV
Chroma subsampling             : 4:2:0
Bit depth                      : 8 bits
Scan type                      : Progressive
Bits/(Pixel*Frame)             : 0.179
Stream size                    : 214 MiB (96%)
Language                       : English
Color range                    : Limited
Color primaries                : BT.709
Transfer characteristics       : BT.709
Matrix coefficients            : BT.709
Codec configuration box        : avcC

Audio
ID                             : 2
Format                         : AAC LC
Format/Info                    : Advanced Audio Codec Low Complexity
Codec ID                       : mp4a-40-2
Duration                       : 4 min 31 s
Duration_LastFrame             : -18 ms
Bit rate mode                  : Constant
Bit rate                       : 255 kb/s
Channel(s)                     : 2 channels
Channel layout                 : L R
Sampling rate                  : 48.0 kHz
Frame rate                     : 46.875 FPS (1024 SPF)
Compression mode               : Lossy
Stream size                    : 8.26 MiB (4%)
Default                        : Yes
Alternate group                : 1

</pre>
</div>
<div class="bbCodeBlock bbCodeVfcHH HiddenContent">
<div class="attribution type">Hidden Content:</div>
<blockquote>You must either reply or click 'Like' to see the hidden information contained here.</blockquote>
</div>
<div class="messageTextEndMarker">&nbsp;</div>
</blockquote>
</article>]]></description>
                <author><![CDATA[vitalya3]]></author>
                </item>

                
                <item>
                <title><![CDATA[【Requests】[REQ AUD] - Eva Seven - In my head (Single)]]></title>
                <link><![CDATA[https://sharemania.us/threads/eva-seven-in-my-head-single.251257/]]></link>
                <description><![CDATA[<article>
<blockquote class="messageText SelectQuoteContainer ugc baseHtml">
Has anyone this song in m4a or lossless?
<div class="messageTextEndMarker">&nbsp;</div>
</blockquote>
</article>]]></description>
                <author><![CDATA[byxgm3rx]]></author>
                </item>

                </channel></rss>